<svg xmlns="http://www.w3.org/2000/svg" xmlns:xlink="http://www.w3.org/1999/xlink" viewBox="0 0 18.51 18.51"><defs><style>.cls-1{fill:url(#Degradado_sin_nombre_61);}.cls-2{fill:none;}.cls-3{fill:#fff;}.cls-4{fill:#d0cfd1;}.cls-5{fill:#fefaff;}</style><radialGradient id="Degradado_sin_nombre_61" cx="9.26" cy="9.26" r="9.26" gradientUnits="userSpaceOnUse"><stop offset="0.3" stop-color="#632d92"/><stop offset="0.99" stop-color="#7e3399"/></radialGradient></defs><title>Recurso 2</title><g id="Capa_2" data-name="Capa 2"><g id="Capa_2-2" data-name="Capa 2"><rect class="cls-1" width="18.51" height="18.51" rx="2.87"/><polygon class="cls-2" points="12.78 8.83 12.04 6.7 11.25 8.53 12.14 10.66 12.78 8.83"/><polygon class="cls-2" points="7.27 8.7 6.38 6.7 5.74 8.4 6.48 10.66 7.27 8.7"/><polygon class="cls-2" points="8.83 8.72 9.21 9.55 9.69 8.51 9.3 7.62 8.83 8.72"/><polygon class="cls-3" points="16.04 3.33 14.35 3.33 13.62 5.43 14.48 7.76 16.04 3.33"/><polygon class="cls-4" points="6.48 11.66 5.74 9.4 4.85 11.79 6.04 15.18 6.49 15.18 8.07 11.49 7.27 9.7 6.48 11.66"/><polygon class="cls-3" points="9.3 6.62 9.69 7.51 10.5 5.74 9.49 3.33 9.04 3.33 8 5.9 8.83 7.72 9.3 6.62"/><polygon class="cls-4" points="12.14 11.66 11.25 9.53 10.47 11.33 12.13 15.18 12.58 15.18 13.62 12.23 12.78 9.83 12.14 11.66"/><polygon class="cls-3" points="4.41 3.33 2.59 3.33 4.04 7.47 4.96 5 4.41 3.33"/><polygon class="cls-5" points="13.62 6.43 12.48 3.39 12.03 3.39 10.5 6.74 9.69 8.51 9.21 9.55 8.83 8.72 8 6.9 6.39 3.39 5.94 3.39 4.96 6 4.04 8.47 2.48 12.63 4.16 12.63 4.85 10.79 5.74 8.4 6.38 6.7 7.27 8.7 8.07 10.49 9.03 12.63 9.47 12.63 10.47 10.33 11.25 8.53 12.04 6.7 12.78 8.83 13.62 11.23 14.1 12.63 15.93 12.63 14.48 8.76 13.62 6.43"/></g></g></svg>